<svg xmlns="http://www.w3.org/2000/svg" class="dg" viewBox="0 0 960 510" width="960" height="510"><title>System architecture</title><style>
.dg text{font-family:'Segoe UI', Arial, sans-serif;}
.d-bg{fill:#fdfcf8}
.d-box{fill:#fdfcf8;stroke:#dedcd3;stroke-width:1.2}
.d-soft{fill:#f5f4ef;stroke:#dedcd3;stroke-width:1.2}
.d-a{fill:#e6edfb;stroke:#2a5fd8;stroke-width:1.4}
.d-w{fill:#fbeedd;stroke:#d9782a;stroke-width:1.4}
.d-g{fill:#e3f4ec;stroke:#0f7a55;stroke-width:1.4}
.d-r{fill:#fbe6e3;stroke:#b8322a;stroke-width:1.4}
.d-t{fill:#13202f;font-size:13.5px;font-weight:600}
.d-s{fill:#44505f;font-size:12px}
.d-m{fill:#6b7480;font-size:11px;letter-spacing:.06em;font-family:Consolas, 'Courier New', monospace}
.d-ln{stroke:#6b7480;stroke-width:1.5;fill:none}
.d-ah{fill:#6b7480}
.c-a{fill:#2a5fd8}.c-w{fill:#d9782a}.c-g{fill:#0f7a55}.c-b{fill:#b8322a}.c-m{fill:#6b7480}.c-i{fill:#13202f}
.c-ax{stroke:#e7e5dd;stroke-width:1}
.c-tg{stroke:#b8322a;stroke-width:2;stroke-dasharray:5 4}
.c-tgt{fill:#b8322a;font-size:12px}
.c-t{fill:#44505f;font-size:12px}
.c-v{fill:#13202f;font-size:12px;font-weight:600;font-variant-numeric:tabular-nums}
.c-la{stroke:#2a5fd8;stroke-width:2.5;fill:none}
.c-lw{stroke:#d9782a;stroke-width:2.5;fill:none;stroke-dasharray:6 4}
.c-ring{stroke:#2a5fd8;stroke-width:2;fill:none}
</style><defs><marker id="ah-architecture-system" viewBox="0 0 10 10" refX="9" refY="5" markerWidth="7" markerHeight="7" orient="auto-start-reverse"><path d="M0,0 L10,5 L0,10 z" class="d-ah"/></marker></defs><rect width="960" height="510" class="d-bg"/><text x="50.0" y="26.0" text-anchor="start" class="d-m" >OFFLINE INDEXING (RESUMABLE)</text><rect x="50" y="40" width="210" height="56" rx="10" class="d-box"/><text x="155.0" y="64.0" text-anchor="middle" class="d-t" >MS MARCO v1.1</text><text x="155.0" y="81.0" text-anchor="middle" class="d-s" >100k or 500k passages</text><rect x="50" y="130" width="210" height="56" rx="10" class="d-box"/><text x="155.0" y="154.0" text-anchor="middle" class="d-t" >Clean · dedup · metadata</text><text x="155.0" y="171.0" text-anchor="middle" class="d-s" >HTML entities fixed</text><rect x="50" y="220" width="210" height="50" rx="10" class="d-a"/><text x="155.0" y="241.0" text-anchor="middle" class="d-t" >Dense encoder</text><text x="155.0" y="258.0" text-anchor="middle" class="d-s" >bge-small-en-v1.5 · 384-d</text><rect x="50" y="285" width="210" height="50" rx="10" class="d-a"/><text x="155.0" y="306.0" text-anchor="middle" class="d-t" >BM25 encoder</text><text x="155.0" y="323.0" text-anchor="middle" class="d-s" >FastEmbed sparse vectors</text><rect x="50" y="350" width="210" height="50" rx="10" class="d-a"/><text x="155.0" y="371.0" text-anchor="middle" class="d-t" >Topic tagger</text><text x="155.0" y="388.0" text-anchor="middle" class="d-s" >15 topics from stored vectors</text><path d="M155,96 L155,128" class="d-ln" marker-end="url(#ah-architecture-system)"/><path d="M50,158 H32 V375" class="d-ln"/><path d="M32,245 L48,245" class="d-ln" marker-end="url(#ah-architecture-system)"/><path d="M32,310 L48,310" class="d-ln" marker-end="url(#ah-architecture-system)"/><path d="M32,375 L48,375" class="d-ln" marker-end="url(#ah-architecture-system)"/><text x="330.0" y="160.0" text-anchor="start" class="d-m" >VECTOR DATABASE</text><rect x="330" y="170" width="280" height="230" rx="12" class="d-soft"/><text x="470.0" y="194.0" text-anchor="middle" class="d-t" >Qdrant 1.19 (local, free)</text><text x="470.0" y="211.0" text-anchor="middle" class="d-s" >msmarco (100k) · msmarco_500k</text><rect x="350" y="225" width="240" height="46" rx="10" class="d-box"/><text x="470.0" y="244.0" text-anchor="middle" class="d-t" >Dense vectors · HNSW</text><text x="470.0" y="261.0" text-anchor="middle" class="d-s" >cosine · m 16 · ef 128</text><rect x="350" y="280" width="240" height="46" rx="10" class="d-box"/><text x="470.0" y="299.0" text-anchor="middle" class="d-t" >BM25 sparse vectors</text><text x="470.0" y="316.0" text-anchor="middle" class="d-s" >IDF computed live by Qdrant</text><rect x="350" y="335" width="240" height="50" rx="10" class="d-box"/><text x="470.0" y="356.0" text-anchor="middle" class="d-t" >Payload + 5 filter indexes</text><text x="470.0" y="373.0" text-anchor="middle" class="d-s" >topic · source type · corpus · …</text><path d="M260,245 L328,245" class="d-ln" marker-end="url(#ah-architecture-system)"/><path d="M260,310 L328,310" class="d-ln" marker-end="url(#ah-architecture-system)"/><path d="M260,375 L328,375" class="d-ln" marker-end="url(#ah-architecture-system)"/><rect x="400" y="40" width="210" height="60" rx="10" class="d-w"/><text x="505.0" y="66.0" text-anchor="middle" class="d-t" >Company systems</text><text x="505.0" y="83.0" text-anchor="middle" class="d-s" >insert · update · delete</text><rect x="690" y="40" width="250" height="80" rx="10" class="d-box"/><text x="815.0" y="68.5" text-anchor="middle" class="d-t" >Web UI</text><text x="815.0" y="85.5" text-anchor="middle" class="d-s" >Search · Phases · Compare</text><text x="815.0" y="100.5" text-anchor="middle" class="d-s" >Scale · Live updates</text><rect x="690" y="170" width="250" height="230" rx="12" class="d-a"/><text x="815.0" y="194.0" text-anchor="middle" class="d-t" >FastAPI service</text><text x="815.0" y="211.0" text-anchor="middle" class="d-s" >one process · models loaded once</text><text x="815.0" y="240.0" text-anchor="middle" class="d-s" >/search  ·  /answer</text><text x="815.0" y="258.0" text-anchor="middle" class="d-s" >/passages  upsert · delete</text><text x="815.0" y="276.0" text-anchor="middle" class="d-s" >/dashboard  ·  /changes</text><rect x="705" y="296" width="220" height="42" rx="10" class="d-box"/><text x="815.0" y="313.0" text-anchor="middle" class="d-t" >100k → CPU profile</text><text x="815.0" y="330.0" text-anchor="middle" class="d-s" >reranker reads top 10</text><rect x="705" y="346" width="220" height="42" rx="10" class="d-box"/><text x="815.0" y="363.0" text-anchor="middle" class="d-t" >500k → GPU profile</text><text x="815.0" y="380.0" text-anchor="middle" class="d-s" >reranker reads top 20</text><path d="M612,290 L688,290" class="d-ln" marker-end="url(#ah-architecture-system)" marker-start="url(#ah-architecture-system)"/><text x="650.0" y="280.0" text-anchor="middle" class="d-s" >one batched query</text><path d="M815,122 L815,168" class="d-ln" marker-end="url(#ah-architecture-system)" marker-start="url(#ah-architecture-system)"/><path d="M610,70 L650,70 L650,200 L688,200" class="d-ln" marker-end="url(#ah-architecture-system)"/><text x="655.0" y="135.0" text-anchor="start" class="d-s" >REST</text><rect x="690" y="440" width="250" height="56" rx="10" class="d-box"/><text x="815.0" y="464.0" text-anchor="middle" class="d-t" >Groq LLM (free tier)</text><text x="815.0" y="481.0" text-anchor="middle" class="d-s" >grounded answers · RAGAS judge</text><rect x="400" y="440" width="210" height="56" rx="10" class="d-box"/><text x="505.0" y="464.0" text-anchor="middle" class="d-t" >Change log · SQLite</text><text x="505.0" y="481.0" text-anchor="middle" class="d-s" >every version, before / after</text><path d="M815,402 L815,438" class="d-ln" marker-end="url(#ah-architecture-system)"/><path d="M690,385 L650,385 L650,468 L612,468" class="d-ln" marker-end="url(#ah-architecture-system)"/></svg>