<svg xmlns="http://www.w3.org/2000/svg" class="dg" viewBox="0 0 780 336" width="780" height="336"><title>RAGAS context precision and recall</title><style>
.dg text{font-family:'Segoe UI', Arial, sans-serif;}
.d-bg{fill:#fdfcf8}
.d-box{fill:#fdfcf8;stroke:#dedcd3;stroke-width:1.2}
.d-soft{fill:#f5f4ef;stroke:#dedcd3;stroke-width:1.2}
.d-a{fill:#e6edfb;stroke:#2a5fd8;stroke-width:1.4}
.d-w{fill:#fbeedd;stroke:#d9782a;stroke-width:1.4}
.d-g{fill:#e3f4ec;stroke:#0f7a55;stroke-width:1.4}
.d-r{fill:#fbe6e3;stroke:#b8322a;stroke-width:1.4}
.d-t{fill:#13202f;font-size:13.5px;font-weight:600}
.d-s{fill:#44505f;font-size:12px}
.d-m{fill:#6b7480;font-size:11px;letter-spacing:.06em;font-family:Consolas, 'Courier New', monospace}
.d-ln{stroke:#6b7480;stroke-width:1.5;fill:none}
.d-ah{fill:#6b7480}
.c-a{fill:#2a5fd8}.c-w{fill:#d9782a}.c-g{fill:#0f7a55}.c-b{fill:#b8322a}.c-m{fill:#6b7480}.c-i{fill:#13202f}
.c-ax{stroke:#e7e5dd;stroke-width:1}
.c-tg{stroke:#b8322a;stroke-width:2;stroke-dasharray:5 4}
.c-tgt{fill:#b8322a;font-size:12px}
.c-t{fill:#44505f;font-size:12px}
.c-v{fill:#13202f;font-size:12px;font-weight:600;font-variant-numeric:tabular-nums}
.c-la{stroke:#2a5fd8;stroke-width:2.5;fill:none}
.c-lw{stroke:#d9782a;stroke-width:2.5;fill:none;stroke-dasharray:6 4}
.c-ring{stroke:#2a5fd8;stroke-width:2;fill:none}
</style><defs><marker id="ah-chart-ragas" viewBox="0 0 10 10" refX="9" refY="5" markerWidth="7" markerHeight="7" orient="auto-start-reverse"><path d="M0,0 L10,5 L0,10 z" class="d-ah"/></marker></defs><rect width="780" height="336" class="d-bg"/><line x1="210.0" x2="210.0" y1="4" y2="312" class="c-ax"/><text x="210.0" y="329.0" text-anchor="middle" class="c-t" >0.000</text><line x1="332.5" x2="332.5" y1="4" y2="312" class="c-ax"/><text x="332.5" y="329.0" text-anchor="middle" class="c-t" >0.250</text><line x1="455.0" x2="455.0" y1="4" y2="312" class="c-ax"/><text x="455.0" y="329.0" text-anchor="middle" class="c-t" >0.500</text><line x1="577.5" x2="577.5" y1="4" y2="312" class="c-ax"/><text x="577.5" y="329.0" text-anchor="middle" class="c-t" >0.750</text><line x1="700.0" x2="700.0" y1="4" y2="312" class="c-ax"/><text x="700.0" y="329.0" text-anchor="middle" class="c-t" >1.000</text><text x="200.0" y="27.0" text-anchor="end" class="c-t" >100k CPU · Dense</text><rect x="210" y="6" width="386.3" height="15" rx="3" class="c-a"/><text x="602.3" y="18.0" text-anchor="start" class="c-v" >0.788</text><rect x="210" y="25" width="421.4" height="15" rx="3" class="c-w"/><text x="637.4" y="37.0" text-anchor="start" class="c-v" >0.860</text><text x="200.0" y="77.0" text-anchor="end" class="c-t" >100k CPU · Hybrid</text><rect x="210" y="56" width="389.0" height="15" rx="3" class="c-a"/><text x="605.0" y="68.0" text-anchor="start" class="c-v" >0.794</text><rect x="210" y="75" width="411.6" height="15" rx="3" class="c-w"/><text x="627.6" y="87.0" text-anchor="start" class="c-v" >0.840</text><text x="200.0" y="127.0" text-anchor="end" class="c-t" >100k CPU · Phase 2</text><rect x="210" y="106" width="396.3" height="15" rx="3" class="c-a"/><text x="612.3" y="118.0" text-anchor="start" class="c-v" >0.809</text><rect x="210" y="125" width="441.0" height="15" rx="3" class="c-w"/><text x="657.0" y="137.0" text-anchor="start" class="c-v" >0.900</text><text x="200.0" y="177.0" text-anchor="end" class="c-t" >500k GPU · Dense</text><rect x="210" y="156" width="369.6" height="15" rx="3" class="c-a"/><text x="585.6" y="168.0" text-anchor="start" class="c-v" >0.754</text><rect x="210" y="175" width="416.5" height="15" rx="3" class="c-w"/><text x="632.5" y="187.0" text-anchor="start" class="c-v" >0.850</text><text x="200.0" y="227.0" text-anchor="end" class="c-t" >500k GPU · Hybrid</text><rect x="210" y="206" width="377.1" height="15" rx="3" class="c-a"/><text x="593.1" y="218.0" text-anchor="start" class="c-v" >0.770</text><rect x="210" y="225" width="426.3" height="15" rx="3" class="c-w"/><text x="642.3" y="237.0" text-anchor="start" class="c-v" >0.870</text><text x="200.0" y="277.0" text-anchor="end" class="c-t" >500k GPU · Phase 2</text><rect x="210" y="256" width="402.0" height="15" rx="3" class="c-a"/><text x="618.0" y="268.0" text-anchor="start" class="c-v" >0.820</text><rect x="210" y="275" width="419.8" height="15" rx="3" class="c-w"/><text x="635.8" y="287.0" text-anchor="start" class="c-v" >0.857</text><line x1="577.5" x2="577.5" y1="2" y2="312" class="c-tg"/><text x="572.5" y="13.0" text-anchor="end" class="c-tgt" >precision target 0.75</text></svg>